<?xml version="1.0" encoding="UTF-8"?>
<!DOCTYPE svg PUBLIC "-//W3C//DTD SVG 1.1//EN" "http://www.w3.org/Graphics/SVG/1.1/DTD/svg11.dtd">
<!-- Creator: CorelDRAW X5 -->
<svg xmlns="http://www.w3.org/2000/svg" xml:space="preserve" width="113.875mm" height="130mm" style="shape-rendering:geometricPrecision; text-rendering:geometricPrecision; image-rendering:optimizeQuality; fill-rule:evenodd; clip-rule:evenodd"
viewBox="0 0 11388 13000"
 xmlns:xlink="http://www.w3.org/1999/xlink">
 <defs>
  <style type="text/css">
   <![CDATA[
    .fil3 {fill:#00AE41}
    .fil0 {fill:#029835}
    .fil1 {fill:white}
    .fil2 {fill:white;fill-rule:nonzero}
   ]]>
  </style>
 </defs>
 <g id="Layer_x0020_1">
  <metadata id="CorelCorpID_0Corel-Layer"/>
  <path class="fil0" d="M5694 3452c1229,0 2225,996 2225,2225 0,1229 -996,2225 -2225,2225 -1229,0 -2225,-996 -2225,-2225 0,-1229 996,-2225 2225,-2225z"/>
  <path class="fil1" d="M4783 4835l1861 0 0 1373 -1861 0 0 -1373zm1249 1152c-20,12 -37,4 -55,-14l-290 -287 -293 290c-18,18 -37,27 -57,12 -3,-2 -37,-37 -39,-39 -12,-20 -4,-37 14,-55l290 -292 -101 -100c-103,68 -211,8 -280,-78 -30,-38 -69,-115 -82,-186 -8,-41 -7,-79 2,-112 13,-44 26,-57 70,-70 32,-9 70,-10 111,-2 72,14 149,52 186,82 86,69 146,177 78,280l100 101 93 -94c-2,-44 -2,-94 3,-116 4,-18 15,-29 41,-53l264 -234c46,-48 80,-15 30,31l-175 165c-20,19 -32,36 -10,59 23,23 37,10 55,-8l182 -182c14,-16 33,-18 41,-8 10,8 7,27 -8,41l-182 182c-18,18 -31,32 -8,55 22,23 40,10 59,-10l165 -175c46,-49 80,-16 31,30l-234 264c-24,26 -35,37 -53,41 -21,5 -71,6 -116,3l-94 93 287 289c18,18 27,37 12,57 -2,3 -37,37 -39,39zm-1169 -1201c-13,0 -17,-17 0,-31l478 -445 372 0 372 0 478 445c17,14 13,31 0,31l-850 0 -850 0zm-8 -269l4 197 363 -339 -215 0c-93,-2 -159,50 -152,142zm1715 0l-4 197 -363 -339 215 0c93,-2 159,50 152,142zm-1045 -51l129 0 32 0 213 0c20,0 36,16 36,36l0 54c0,2 0,5 -1,7l-213 0 -103 0 -129 0c0,-2 -1,-5 -1,-7l0 -54c0,-20 16,-36 36,-36z"/>
  <path class="fil2" d="M4603 6829l139 0 9 0 0 9 0 219 0 6 -6 2c-5,2 -10,3 -15,5 -5,2 -11,3 -18,5l0 0c-13,3 -27,6 -43,8l0 0c-8,1 -16,2 -24,3 -8,1 -16,1 -24,1l0 0c-33,0 -62,-4 -88,-13l0 0c-13,-4 -25,-10 -36,-17 -11,-7 -21,-15 -31,-24l0 0c-6,-6 -12,-13 -18,-21 -5,-7 -10,-15 -15,-24 -4,-9 -8,-18 -12,-27 -3,-9 -6,-19 -8,-30 -2,-10 -4,-21 -5,-32 -1,-11 -2,-22 -2,-34l0 0c0,-15 1,-29 3,-42 2,-13 5,-26 8,-38 4,-12 8,-23 13,-34 5,-11 11,-21 18,-30 7,-9 14,-18 23,-25 8,-8 17,-15 26,-21 9,-6 19,-12 30,-16 10,-5 21,-9 32,-12 11,-3 23,-5 35,-7 12,-2 24,-2 37,-2 7,0 14,0 21,1 7,0 14,1 20,2 6,1 12,2 18,3 6,1 11,2 16,4l0 0c5,1 10,3 14,4 5,2 9,3 12,5l6 3 -2 7 -17 67 -3 10 -10 -4c-3,-1 -6,-3 -10,-4 -3,-1 -7,-2 -10,-3l0 0c-4,-1 -7,-2 -12,-3 -4,-1 -9,-2 -13,-2l0 0c-5,-1 -10,-1 -15,-1 -5,0 -11,0 -17,0 -9,0 -18,1 -26,2 -8,1 -16,3 -24,6 -7,3 -14,6 -21,10 -6,4 -12,9 -18,15 -5,6 -10,12 -15,19 -4,7 -8,15 -11,24l0 0c-3,9 -5,18 -7,29 -2,11 -2,22 -3,34 0,12 1,23 2,33 1,10 4,20 7,28 3,9 6,17 10,24 4,7 8,13 14,19l0 0c5,6 11,11 16,15l0 0c6,4 12,8 19,11l0 0c7,3 14,5 22,6 7,1 15,2 24,2 5,0 9,0 13,0 4,0 8,-1 11,-1l0 0c3,-1 6,-1 8,-2l0 0 0 -88 -52 0 -9 0 0 -9 0 -64 0 -9 9 0zm385 -76c2,0 3,1 4,1l7 1 0 7 0 78 0 11 -10 -2c-1,0 -3,0 -4,-1 -1,0 -3,0 -4,0 -2,0 -3,0 -5,0 -1,0 -3,0 -6,0 -6,0 -11,1 -15,2 -5,1 -9,3 -13,5 -4,2 -8,5 -11,9 -3,4 -6,8 -9,13l0 0c-2,5 -4,11 -6,17 -1,7 -2,14 -2,22l0 0 0 158 0 9 -9 0 -81 0 -9 0 0 -9 0 -211c0,-11 0,-20 0,-27 0,-8 0,-17 0,-25l0 0c0,-8 0,-15 -1,-23 0,-7 -1,-14 -1,-21l0 -9 9 0 70 0 8 0 1 8 2 25c3,-4 5,-7 8,-11l0 0c4,-5 9,-9 14,-13 5,-4 10,-7 16,-9l0 0c5,-3 11,-4 16,-6 6,-1 11,-2 17,-2 1,0 3,0 6,0l0 0c2,0 4,0 5,0 2,0 3,0 5,1zm298 110c1,8 1,17 1,26l0 0 0 112c0,6 0,11 0,13 0,4 0,9 0,13l0 0c0,4 0,8 1,13 0,4 0,8 1,12l0 0c0,4 1,7 1,11 0,3 1,7 1,10l2 10 -10 0 -73 0 -7 0 -1 -7 -2 -15c-4,4 -8,7 -12,10l0 0c-5,3 -9,6 -14,8 -5,2 -10,4 -16,6 -6,2 -11,3 -17,4 -6,1 -12,1 -18,1l0 0c-15,0 -29,-3 -42,-8l0 0c-6,-3 -12,-6 -17,-9 -5,-4 -10,-8 -15,-13l0 0c-4,-5 -8,-10 -12,-15 -3,-5 -6,-11 -8,-17l0 0c-2,-6 -4,-12 -5,-19 -1,-6 -2,-13 -2,-20l0 0c0,-11 1,-20 3,-30 2,-9 6,-18 10,-26l0 0c4,-8 10,-15 16,-22 6,-6 13,-12 21,-17 8,-5 17,-9 26,-13 9,-4 19,-7 30,-9 11,-2 22,-4 33,-5 9,-1 18,-1 27,-2 0,-2 0,-3 -1,-4 -1,-4 -2,-8 -3,-11l0 0c-1,-3 -3,-6 -5,-8 -2,-2 -5,-5 -8,-6l0 0c-3,-2 -7,-3 -12,-4 -5,-1 -11,-2 -18,-2 -7,0 -13,1 -20,1 -6,1 -13,2 -19,4l0 0c-6,2 -12,4 -17,6 -5,2 -10,5 -15,8l-10 6 -3 -11 -15 -53 -2 -6 6 -3c4,-2 8,-4 12,-7 5,-2 10,-4 15,-6 6,-2 11,-4 18,-6 6,-2 13,-3 20,-4 7,-1 14,-2 22,-3 8,-1 15,-1 24,-1l0 0c12,0 24,1 34,3 11,2 20,5 29,8l0 0c9,4 16,8 23,13 7,5 13,11 18,18 5,6 9,13 13,21 3,7 6,15 8,23l0 0c2,8 3,16 4,25zm-97 117c1,-4 1,-7 1,-12l0 0 0 -35c-2,0 -5,0 -7,0l0 0c-5,0 -11,1 -16,2l0 0c-5,1 -9,2 -14,3 -4,1 -9,3 -12,5 -4,2 -7,4 -10,6 -3,2 -5,5 -7,8l0 0c-2,3 -3,6 -5,10 -1,4 -2,8 -2,13 0,4 0,8 1,11 1,3 2,6 3,8l0 0c1,2 3,4 5,6 2,2 4,3 6,4l0 0c5,2 10,3 15,3 2,0 4,0 6,-1 2,0 5,-1 7,-2l0 0c2,-1 5,-2 7,-3 2,-1 5,-3 7,-5 2,-2 4,-3 6,-6 2,-2 3,-5 5,-8l0 0c1,-3 2,-6 3,-9zm266 -349l0 150c1,-1 1,-1 2,-2 6,-6 13,-11 21,-15l0 0c8,-4 16,-7 26,-9 9,-2 19,-3 29,-3l0 0c9,0 18,1 26,3 8,2 16,5 24,9l0 0c7,4 14,9 21,15 6,6 12,12 18,19l0 0c5,7 10,15 14,24l0 0c4,9 7,18 10,28l0 0c3,10 5,20 6,31 1,11 2,22 2,34l0 0c0,12 -1,22 -2,33 -1,10 -3,20 -5,29 -2,9 -5,18 -9,26 -3,8 -7,16 -11,23l0 0c-4,7 -9,13 -14,19 -5,6 -10,11 -16,16 -6,5 -12,9 -18,12 -6,4 -12,6 -19,9 -7,2 -13,4 -20,5l0 0c-7,1 -14,2 -20,2l0 0c-9,0 -18,-1 -27,-3 -9,-2 -17,-5 -24,-9l0 0c-8,-4 -15,-10 -22,-17 -2,-2 -3,-4 -5,-5l-2 20 -1 8 -8 0 -69 0 -9 0 0 -9c0,-4 0,-8 1,-12 0,-4 0,-9 1,-13l0 0 0 -15 0 -16c0,-9 0,-20 0,-32l0 -354 0 -9 9 0 81 0 9 0 0 9zm1 247c-1,4 -1,8 -1,13l0 0 0 60 0 0c0,5 1,10 2,15 1,5 3,9 5,13l0 0c2,4 4,8 7,11 3,3 6,6 9,8 3,2 7,4 11,5 4,1 8,2 13,2 6,0 11,-1 15,-3 5,-2 9,-4 13,-7l0 0c4,-3 7,-7 10,-12 3,-5 6,-11 8,-17l0 0c2,-7 4,-14 5,-22 1,-8 2,-17 2,-26 0,-6 0,-12 -1,-18 -1,-6 -2,-11 -3,-17 -1,-5 -3,-10 -4,-15 -2,-4 -4,-9 -6,-12 -2,-4 -5,-7 -7,-10 -3,-3 -6,-5 -9,-7l0 0c-3,-2 -7,-3 -10,-4 -4,-1 -8,-2 -12,-2l0 0c-3,0 -6,0 -8,1 -3,1 -5,2 -8,3l0 0c-3,1 -5,3 -8,5l0 0c-2,2 -5,4 -7,7 -2,2 -4,5 -6,8 -2,3 -3,6 -5,10 -1,3 -2,7 -3,11zm355 27l0 168 0 9 -9 0 -81 0 -9 0 0 -9 0 -423 0 -9 9 0 226 0 9 0 0 9 0 68 0 9 -9 0 -136 0 0 94 126 0 9 0 0 9 0 67 0 9 -9 0 -126 0zm281 -143l0 0c19,-8 39,-11 61,-11l0 0c11,0 22,1 32,3 10,2 20,5 29,9l0 0c9,4 18,9 25,15 8,6 15,12 22,20 7,7 12,16 17,24 5,9 9,18 12,28l0 0c3,10 6,21 8,32 2,11 3,23 3,35 0,12 -1,23 -2,34 -1,11 -4,21 -7,30l0 0c-3,9 -6,18 -10,26 -4,8 -9,16 -14,22l0 0c-5,7 -10,13 -16,18 -6,6 -12,11 -19,15l0 0c-6,4 -13,8 -20,11 -7,3 -14,6 -21,8l0 0c-7,2 -14,3 -22,4 -7,1 -15,1 -22,1l0 0c-11,0 -21,-1 -31,-3 -10,-2 -20,-5 -29,-8l0 0c-9,-4 -18,-8 -26,-14 -8,-6 -15,-12 -22,-19 -7,-7 -13,-15 -18,-24 -5,-9 -10,-18 -13,-29l0 0c-4,-10 -6,-21 -8,-33l0 0c-2,-11 -3,-24 -3,-37 0,-13 1,-26 3,-38 2,-12 5,-23 9,-34 4,-10 8,-20 14,-29 5,-9 12,-17 19,-25 7,-7 15,-14 23,-19l0 0c8,-6 17,-10 26,-14zm106 193c2,-11 4,-24 4,-37 0,-6 0,-12 -1,-17 -1,-6 -1,-11 -2,-17 -1,-5 -2,-11 -4,-16 -2,-5 -4,-10 -6,-14l0 0c-2,-4 -4,-8 -7,-11 -3,-3 -5,-6 -9,-8l0 0c-3,-2 -6,-4 -10,-5 -4,-1 -8,-2 -12,-2 -4,0 -7,0 -11,1 -3,1 -6,2 -9,3 -3,2 -5,4 -8,6 -2,2 -5,5 -7,7l0 0c-2,3 -4,6 -6,10 -2,3 -3,7 -5,11l0 0c-1,4 -3,8 -4,12 -1,4 -2,8 -2,13 -1,5 -1,9 -1,14l0 0c0,4 0,9 0,14 0,7 0,13 1,19 1,6 2,12 3,18l0 0c1,6 3,11 5,16 2,5 4,9 6,13l0 0c2,4 5,8 8,11 3,3 6,6 9,8l0 0c3,2 6,4 10,5l0 0c4,1 7,2 11,2 4,0 8,-1 11,-2 3,-1 7,-3 10,-5l0 0c3,-2 6,-5 9,-8 3,-3 5,-7 7,-11l0 0c2,-4 4,-9 6,-14 2,-5 3,-10 4,-16zm234 -193l0 0c19,-8 39,-11 61,-11l0 0c11,0 22,1 32,3 10,2 20,5 29,9l0 0c9,4 18,9 25,15 8,6 15,12 22,20 7,7 12,16 17,24 5,9 9,18 12,28l0 0c3,10 6,21 8,32 2,11 3,23 3,35 0,12 -1,23 -2,34 -1,11 -4,21 -7,30l0 0c-3,9 -6,18 -10,26 -4,8 -9,16 -14,22l0 0c-5,7 -10,13 -16,18 -6,6 -12,11 -19,15l0 0c-6,4 -13,8 -20,11 -7,3 -14,6 -21,8l0 0c-7,2 -14,3 -22,4 -7,1 -15,1 -22,1l0 0c-11,0 -21,-1 -31,-3 -10,-2 -20,-5 -29,-8l0 0c-9,-4 -18,-8 -26,-14 -8,-6 -15,-12 -22,-19 -7,-7 -13,-15 -18,-24 -5,-9 -10,-18 -13,-29l0 0c-4,-10 -6,-21 -8,-33l0 0c-2,-11 -3,-24 -3,-37 0,-13 1,-26 3,-38 2,-12 5,-23 9,-34 4,-10 8,-20 14,-29 5,-9 12,-17 19,-25 7,-7 15,-14 23,-19l0 0c8,-6 17,-10 26,-14zm106 193c2,-11 4,-24 4,-37 0,-6 0,-12 -1,-17 -1,-6 -1,-11 -2,-17 -1,-5 -2,-11 -4,-16 -2,-5 -4,-10 -6,-14l0 0c-2,-4 -4,-8 -7,-11 -3,-3 -5,-6 -9,-8l0 0c-3,-2 -6,-4 -10,-5 -4,-1 -8,-2 -12,-2 -4,0 -7,0 -11,1 -3,1 -6,2 -9,3 -3,2 -5,4 -8,6 -2,2 -5,5 -7,7l0 0c-2,3 -4,6 -6,10 -2,3 -3,7 -5,11l0 0c-1,4 -3,8 -4,12 -1,4 -2,8 -2,13 -1,5 -1,9 -1,14l0 0c0,4 0,9 0,14 0,7 0,13 1,19 1,6 2,12 3,18l0 0c1,6 3,11 5,16 2,5 4,9 6,13l0 0c2,4 5,8 8,11 3,3 6,6 9,8l0 0c3,2 6,4 10,5l0 0c4,1 7,2 11,2 4,0 8,-1 11,-2 3,-1 7,-3 10,-5l0 0c3,-2 6,-5 9,-8 3,-3 5,-7 7,-11l0 0c2,-4 4,-9 6,-14 2,-5 3,-10 4,-16zm350 -334l81 0 9 0 0 9 0 355c0,7 0,13 0,16 0,5 0,10 0,16l0 0c0,5 0,10 0,15 0,5 0,10 0,15l0 0c0,9 1,18 1,26l0 9 -9 0 -71 0 -8 0 -1 -8 -2 -21c-3,4 -7,7 -10,10l0 0c-5,4 -10,8 -15,11 -5,3 -11,6 -17,8 -6,2 -12,4 -19,5 -6,1 -13,2 -20,2l0 0c-9,0 -18,-1 -27,-3 -9,-2 -17,-5 -25,-9l0 0c-8,-4 -15,-9 -22,-15 -7,-6 -13,-12 -19,-20l0 0c-6,-7 -11,-15 -15,-24 -4,-9 -8,-18 -11,-28l0 0c-3,-10 -5,-20 -7,-32 -2,-11 -2,-22 -2,-35l0 0c0,-14 1,-26 3,-38 2,-12 4,-23 8,-34l0 0c3,-10 7,-20 12,-29 5,-9 10,-17 16,-25l0 0c6,-7 13,-14 20,-19 7,-6 15,-10 23,-14l0 0c8,-4 16,-7 25,-9 9,-2 17,-3 26,-3l0 0c6,0 13,0 18,1 6,1 11,2 17,4l0 0c5,2 10,4 15,6 5,2 9,5 13,8l0 0c1,1 2,2 3,3l0 -143 0 -9 9 0zm-10 341c1,-5 1,-10 1,-15l0 0 0 -56 0 0c0,-5 0,-10 -1,-14 -1,-4 -2,-8 -3,-12l0 0c-1,-4 -3,-7 -5,-10 -2,-3 -4,-6 -6,-8l0 0c-2,-2 -4,-4 -7,-6 -2,-2 -5,-3 -7,-4 -5,-2 -11,-3 -16,-3l0 0c-4,0 -9,1 -12,2 -4,1 -7,3 -10,5l0 0c-3,2 -6,5 -9,7 -3,3 -5,6 -8,10l0 0c-2,4 -4,8 -6,13 -2,5 -3,10 -5,15l0 0c-1,5 -2,11 -3,17 -1,6 -1,12 -1,19 0,9 1,17 2,25 1,8 3,15 5,21l0 0c2,6 5,12 8,16 3,5 6,9 10,12l0 0c4,3 8,6 12,7l0 0c5,2 10,2 15,2l0 0c3,0 5,0 8,-1 3,0 5,-1 8,-2l0 0c3,-1 5,-2 8,-4 2,-2 5,-3 7,-6l0 0c2,-2 4,-5 6,-7 2,-3 4,-6 5,-10l0 0c1,-4 3,-8 3,-12z"/>
  <path class="fil3" d="M7868 9217c0,-79 -6,-163 72,-217 105,-72 272,-14 272,129 0,62 6,109 -15,162 -7,18 -20,39 -31,51 -52,53 -138,67 -202,35 -18,-9 -37,-20 -50,-36 -24,-30 -47,-69 -47,-124zm344 -330c-11,-7 -15,-15 -29,-24 -12,-8 -22,-13 -36,-19 -74,-35 -182,-22 -255,8 -107,44 -176,163 -176,289 0,81 -5,140 27,215 74,175 277,224 435,161 20,-8 35,-16 50,-27 34,-23 39,-30 63,-56 7,-7 10,-14 16,-22 34,-51 56,-116 56,-183l0 -655 -151 0 0 314z"/>
  <path class="fil3" d="M6603 9396c-26,0 -53,-7 -73,-15 -60,-24 -103,-94 -103,-164 0,-73 -6,-141 47,-195 111,-110 302,-43 302,131 0,65 1,137 -46,185 -15,15 -31,30 -51,39 -19,8 -50,18 -76,18zm-327 -259c0,108 -5,173 53,268 80,131 277,169 414,108 20,-9 36,-17 53,-29 9,-7 15,-11 23,-18 38,-33 67,-71 84,-122 36,-102 37,-284 -24,-377 -13,-21 -35,-50 -53,-65 -9,-7 -11,-11 -21,-18 -83,-56 -130,-61 -231,-61 -79,0 -162,39 -214,91 -53,54 -86,144 -86,222z"/>
  <path class="fil3" d="M7318 9396c-71,0 -135,-41 -160,-104 -21,-52 -16,-87 -16,-143 0,-236 349,-242 349,6 0,47 3,84 -13,128 -7,19 -21,45 -33,57 -34,35 -75,57 -127,57zm-327 -259l0 85c0,181 132,319 319,319 58,0 105,-8 148,-28 31,-14 51,-25 76,-47 99,-86 108,-188 108,-313 0,-79 -19,-150 -63,-210 -30,-41 -63,-66 -109,-89 -84,-42 -219,-42 -304,-3 -71,33 -122,85 -151,157 -14,34 -26,82 -26,128z"/>
  <path class="fil3" d="M5717 8686l0 834c0,6 2,8 8,8l140 0c6,0 8,-2 8,-8l0 -322 311 0 0 -146 -311 0 0 -228 344 0 0 -138c0,-6 -2,-8 -8,-8l-484 0c-6,0 -8,2 -8,8z"/>
  <path class="fil3" d="M3024 9096c0,108 3,153 53,247 6,11 12,21 19,31 14,21 28,36 46,53 39,39 60,55 113,82 112,57 279,50 387,-9 23,-12 43,-23 63,-41 8,-7 39,-31 39,-43l0 -341 -330 0 0 66 264 0 0 253c0,12 -30,31 -40,37 -18,11 -32,19 -53,27 -137,50 -294,29 -399,-75 -48,-47 -97,-137 -97,-230 0,-70 2,-128 38,-188l74 -96c97,-78 155,-99 284,-99 35,0 69,5 98,12l61 22c6,3 13,7 20,10l0 -74c-29,-7 -25,-14 -93,-25 -94,-16 -201,-9 -285,27 -42,18 -95,48 -126,80 -22,23 -22,17 -50,52 -9,11 -14,18 -22,30 -8,12 -12,20 -20,33 -24,40 -45,114 -45,161z"/>
  <path class="fil3" d="M4218 9132c0,84 -7,141 31,216 13,27 43,69 65,89 77,67 161,106 272,85 19,-4 33,-11 44,-13l0 -66c-69,16 -107,36 -195,-3 -16,-7 -25,-12 -39,-22 -22,-15 -46,-37 -62,-59 -59,-79 -50,-134 -50,-228 0,-30 15,-70 25,-91 33,-72 125,-140 212,-140 74,0 122,13 177,60 54,46 87,111 87,185l0 382 66 0 0 -385c0,-43 -14,-92 -29,-122 -26,-52 -24,-45 -54,-81 -47,-58 -143,-105 -220,-105l-28 0c-159,0 -303,154 -303,297z"/>
  <path class="fil3" d="M4892 9206c9,-6 67,-81 78,-93l81 -89c74,-74 123,-123 240,-123 61,0 122,32 163,73l3 3c73,79 73,132 73,235 0,237 -312,347 -455,141 -10,-15 -30,-51 -32,-73 -8,2 -8,6 -13,12 -5,5 -7,8 -11,14 -3,3 -22,26 -22,27 0,41 61,111 100,137 226,153 500,-17 500,-264l0 -55c0,-95 -42,-170 -90,-218 -29,-29 -49,-47 -88,-66 -98,-50 -217,-42 -308,21l-41 30c-35,27 -64,58 -94,90 -5,6 -5,7 -10,12 -5,6 -7,7 -12,13 -7,9 -14,17 -21,26 -56,63 -41,54 -41,147z"/>
  <path class="fil3" d="M3134 9116l0 22c0,163 134,300 297,300 55,0 120,-10 165,-33 8,-4 36,-20 36,-30l0 -190 -217 0 0 66 157 0 0 96c-51,12 -61,25 -138,25 -132,0 -234,-104 -234,-237l0 -25c0,-69 42,-132 81,-164 82,-69 190,-81 297,-54 16,4 34,11 48,18 15,8 27,18 39,27l0 -80c-13,-3 -28,-13 -43,-18 -113,-39 -241,-38 -343,25l-46 34c-51,47 -100,120 -100,217z"/>
  <path class="fil3" d="M4892 9385c4,-3 130,-162 160,-195 34,-36 65,-76 102,-113 49,-49 107,-90 186,-53 68,32 80,90 80,167 0,52 -11,79 -34,109 -27,35 -67,48 -114,48 -74,0 -140,-102 -140,-179 -11,7 -42,55 -55,63 10,21 12,68 64,120 31,31 77,61 126,61 41,0 65,-1 102,-19 61,-30 115,-101 115,-171 0,-97 10,-147 -64,-222 -29,-29 -83,-58 -140,-58 -56,0 -113,36 -144,63 -34,30 -114,119 -149,159 -13,16 -89,104 -94,115 -6,15 -2,81 -2,103z"/>
  <path class="fil3" d="M4328 9149c0,79 -5,140 58,203 56,56 130,79 206,56 23,-7 29,-14 38,-17l0 -72c-112,75 -237,2 -237,-105l0 -66c0,-112 142,-192 241,-93 25,25 39,58 39,107l0 366 66 0 0 -366c0,-159 -145,-259 -289,-199 -19,8 -46,27 -61,41 -5,5 -7,8 -11,14 -31,37 -51,78 -51,130z"/>
  <path class="fil3" d="M3813 9143l0 385 66 0 0 -385c0,-90 53,-185 136,-219 65,-27 143,-34 210,-5 9,4 14,8 23,10 4,-16 37,-37 41,-52 -5,-1 -35,-18 -63,-28 -40,-14 -70,-13 -113,-13 -96,0 -193,54 -245,132 -32,49 -55,110 -55,176z"/>
  <path class="fil3" d="M3923 9168l0 352c0,14 27,8 66,8l0 -363c0,-107 70,-167 173,-151 10,2 20,7 31,8 5,-10 8,-18 13,-28 4,-9 13,-22 15,-29 -9,-2 -12,-5 -20,-8 -76,-28 -167,-3 -222,53 -39,40 -56,99 -56,159z"/>
  <path class="fil3" d="M4958 8962c10,-7 31,-39 58,-60 4,-3 8,-4 8,-11l0 -336 -66 0 0 407z"/>
  <path class="fil3" d="M5068 8868c18,-9 30,-23 50,-35 6,-4 16,-7 16,-15l0 -264 -66 0 0 314z"/>
 </g>
</svg>
